<?xml version="1.0" encoding="utf-8"?>
<!-- Generator: Adobe Illustrator 18.1.1, SVG Export Plug-In . SVG Version: 6.00 Build 0)  -->
<svg version="1.1" id="Layer_1" xmlns="http://www.w3.org/2000/svg" xmlns:xlink="http://www.w3.org/1999/xlink" x="0px" y="0px"
	 width="540px" height="800px" viewBox="-241 -16 540 800" enable-background="new -241 -16 540 800" xml:space="preserve">
<g id="Layer_2_2_" display="none">
	<rect x="-623" y="-61" display="inline" fill="#2CFF00" width="614" height="872"/>
</g>
<g id="Layer_2_1_" display="none">
	<rect x="-608.7" y="-49.8" display="inline" fill="#0DFF00" width="590" height="858"/>
</g>
<g id="Layer_2" display="none">
	<rect x="-185.4" y="14.2" display="inline" fill="#0DFF00" width="576" height="835"/>
</g>
<circle fill="#FFFFFF" cx="-102.1" cy="143" r="17.3"/>
<circle fill="#FFFFFF" cx="-52" cy="143" r="17.3"/>
<circle fill="#BCD0D8" cx="-102.1" cy="93.3" r="17.3"/>
<circle fill="#BCD0D8" cx="-52" cy="93.3" r="17.3"/>
<path fill="none" stroke="#BCD0D8" stroke-width="2" d="M-206,149.9l16-15.8 M-205.9,134l15.8,16"/>
<g>
	<line fill="none" stroke="#BCD0D8" stroke-width="2" x1="-171" y1="134" x2="-151" y2="134"/>
	<line fill="none" stroke="#BCD0D8" stroke-width="2" x1="-171" y1="142" x2="-151" y2="142"/>
	<line fill="none" stroke="#BCD0D8" stroke-width="2" x1="-171" y1="150" x2="-151" y2="150"/>
</g>
<path fill="#FFFFFF" d="M-196,104c8.3,0,15-6.7,15-15s-6.7-15-15-15s-15,6.7-15,15S-204.2,104-196,104"/>
<polyline fill="none" stroke="#BCD0D8" stroke-width="1.404" points="-201.5,86.1 -196,81.1 -190.4,86.1 "/>
<line fill="none" stroke="#BCD0D8" stroke-width="1.404" x1="-196" y1="81.2" x2="-196" y2="97.5"/>
<path fill="#333333" d="M-228.9,267.9v3.6h3.5v0.9h-3.5v3.7h-1v-3.7h-3.5v-0.9h3.5v-3.6H-228.9z"/>
<path fill="#333333" d="M-233.4,388.4v-0.9h8v0.9H-233.4z"/>
<polygon fill="#AFAFAF" points="181,339.4 169,348.4 169,330.4 "/>
<polygon fill="#4D4D4D" points="211,339.4 199,348.4 199,330.4 "/>
<g>
	<rect x="139" y="-16" fill="none" width="160" height="100"/>
	<polygon fill="#FFFFFF" points="231,34 213,44 213,24 	"/>
</g>
<g>
	
		<rect x="-216.7" y="33.5" transform="matrix(0.7071 0.7071 -0.7071 0.7071 -33.3641 148.5548)" fill="#BCD0D8" width="41.4" height="1"/>
	
		<rect x="-196.5" y="13.3" transform="matrix(0.7071 0.7071 -0.7071 0.7071 -33.3638 148.5549)" fill="#BCD0D8" width="1" height="41.4"/>
</g>
<g>
	
		<rect x="-176.7" y="33.5" transform="matrix(0.7071 0.7071 -0.7071 0.7071 -21.6487 120.2703)" fill="#FFFFFF" width="41.4" height="1"/>
	
		<rect x="-156.5" y="13.3" transform="matrix(0.7071 0.7071 -0.7071 0.7071 -21.6488 120.2698)" fill="#FFFFFF" width="1" height="41.4"/>
</g>
<g>
	<g opacity="0.4">
		<path fill="#D0D2D3" d="M-241,429h28.1v82.1h47.5v23.5H-241V429z"/>
		<path fill="#D0D2D3" d="M-153.8,429h28.3v105.6h-28.3V429z"/>
		<path fill="#D0D2D3" d="M-115,429h29.9l25.2,67.7l25.2-67.7h28.5l-41.3,106.3h-26L-115,429z"/>
		<path fill="#D0D2D3" d="M3.4,429H79v24.3H31.5v16.2h38.4v24.3H31.5v17.3H79v23.5H3.4V429z"/>
	</g>
	<path fill="#FFFFFF" d="M-158.3,509.5h3l6.7-35.7l7.4,35.7h3l9.1-46.6c1.1-5.3,1.2-7.3,3.6-7.8l1.8-0.4v-1.2h-11.6v1.2l1.7,0.4
		c3.2,0.6,3.2,2.5,2.1,8l-5.7,30.9l-5.9-30.5c-1-4.9-1.3-7.6,1.2-8.2l2.2-0.5v-1.2h-15.7v1.2l1.1,0.3c1.6,0.4,1.8,1.3,2.5,4.5l2,9.5
		l-4.5,24.3l-6.1-30.2c-1-4.9-1.3-7.5,1.3-8.1l1.2-0.3v-1.2h-15.5v1.2l1.8,0.4c2,0.4,2.2,2.3,3,5.9L-158.3,509.5L-158.3,509.5z
		 M-99.6,494.7c0-16.9-18.7-21-18.7-33c0-2.8,0.7-6.8,5.1-6.8c6,0,8.6,6.7,9.5,17h1.2v-18.5h-1c-0.4,1.8-1.2,2.6-2.1,2.6
		c-1.8,0-2.9-2.9-7.5-2.9c-7,0-11,5.7-11,13.3c0,14,18.7,19.4,18.7,32c0,6-2.7,9.3-6.4,9.3c-5.6,0-9.6-5.6-10.6-17h-1.2v18.5h1
		c0.8-2.7,1.9-2.9,2.8-2.9c1.5,0,3.3,3.2,8.2,3.2C-104.5,509.5-99.6,503.3-99.6,494.7L-99.6,494.7z M-75,458.3
		c0-2.2,0.7-3.1,2.3-3.5l1.6-0.4v-1.2h-16.3v1.2l2.2,0.4c1.6,0.4,2.3,1.1,2.3,3.3v39.2c0,4.4,0,10.1-4.5,10.1c-2.6,0-4.4-2-4.2-3.6
		c0.2-2.7,4.8-2.5,5-6.8c0.3-2.9-1.6-4.3-3.5-4.5c-2.7-0.4-5.9,1.9-6,6.3c-0.1,5.7,3.5,10.3,9.5,10.3c6.7,0,11.5-4.5,11.5-13.2
		L-75,458.3L-75,458.3z M-63.1,501.9c-2,0-3.6,1.6-3.6,3.8c0,2.1,1.6,3.8,3.6,3.8s3.6-1.6,3.6-3.8S-61.1,501.9-63.1,501.9
		L-63.1,501.9z"/>
	<g>
		<path fill="#FFFFFF" d="M-27.4,468.2c-1.3,0-6.8,0-6.8,0V495c0,0,4.5,0,6.8,0c7,0,9.5-3.1,9.5-12.2c0-0.6,0-2,0-2.6
			C-17.9,471.1-20.5,468.2-27.4,468.2z"/>
		<path fill="#FFFFFF" d="M-51.1,453.5v56.1H-2v-56.1L-51.1,453.5L-51.1,453.5z M-27.4,501.4c-5.9,0-14.8,0-14.8,0v-39.6h14.8
			c11.8,0,17.9,2.8,17.9,19.8S-15.6,501.4-27.4,501.4z"/>
	</g>
</g>
<path fill="#BCD0D8" d="M-102,124c-10.5,0-19,8.5-19,19s8.5,19,19,19s19-8.5,19-19S-91.5,124-102,124z M-95.5,134.6h-2.6
	c-2,0-2.4,1-2.4,2.3v3.1h4.8l-0.6,4.9h-4.1v12.4h-4.9v-12.4h-4.1V140h4.1v-3.6c0-4.1,2.5-6.4,6.2-6.4c1.8,0,3.3,0.2,3.7,0.2
	L-95.5,134.6L-95.5,134.6z"/>
<path fill="#BCD0D8" d="M-52,124c-10.5,0-19,8.5-19,19s8.5,19,19,19s19-8.5,19-19C-32.9,132.5-41.5,124-52,124z M-41.7,139.8
	c0,0.2,0,0.4,0,0.6c0,6.6-5,14.2-14.2,14.2c-2.8,0-5.4-0.8-7.7-2.3c0.4,0.1,0.8,0.1,1.2,0.1c2.3,0,4.5-0.8,6.2-2.1
	c-2.2-0.1-4-1.5-4.7-3.5c0.3,0.1,0.6,0.1,1,0.1c0.5,0,0.9-0.1,1.3-0.2c-2.3-0.5-4-2.5-4-4.9v-0.1c0.6,0.4,1.5,0.6,2.3,0.6
	c-1.4-0.9-2.3-2.4-2.3-4.1c0-0.9,0.2-1.8,0.6-2.5c2.5,3,6.1,5,10.3,5.3c-0.1-0.4-0.2-0.7-0.2-1.1c0-2.7,2.3-5,5-5
	c1.5,0,2.7,0.6,3.6,1.6c1.1-0.2,2.2-0.6,3.2-1.2c-0.4,1.1-1.1,2.2-2.2,2.7c1.1-0.1,1.9-0.4,2.9-0.8C-39.8,138.1-40.6,139-41.7,139.8
	z"/>
<path fill="#FFFFFF" d="M-102,74c-10.5,0-19,8.5-19,19s8.5,19,19,19s19-8.5,19-19S-91.5,74-102,74z M-95.5,84.7h-2.6
	c-2,0-2.4,1-2.4,2.3v3.1h4.8l-0.6,4.9h-4.1v12.4h-4.9V95h-4.1v-4.9h4.1v-3.6c0-4.1,2.5-6.4,6.2-6.4c1.8,0,3.3,0.2,3.7,0.2
	L-95.5,84.7L-95.5,84.7z"/>
<path fill="#FFFFFF" d="M-52,74c-10.5,0-19,8.5-19,19s8.5,19,19,19s19-8.5,19-19C-32.9,82.5-41.5,74-52,74z M-41.7,89.8
	c0,0.2,0,0.4,0,0.6c0,6.6-5,14.2-14.2,14.2c-2.8,0-5.4-0.8-7.7-2.3c0.4,0.1,0.8,0.1,1.2,0.1c2.3,0,4.5-0.8,6.2-2.1
	c-2.2-0.1-4-1.5-4.7-3.5c0.3,0.1,0.6,0.1,1,0.1c0.5,0,0.9-0.1,1.3-0.2c-2.3-0.5-4-2.5-4-4.9v-0.1c0.6,0.4,1.5,0.6,2.3,0.6
	c-1.4-0.9-2.3-2.4-2.3-4.1c0-0.9,0.2-1.8,0.6-2.5c2.5,3,6.1,5,10.3,5.3c-0.1-0.4-0.2-0.7-0.2-1.1c0-2.7,2.3-5,5-5
	c1.5,0,2.7,0.6,3.6,1.6c1.1-0.2,2.2-0.6,3.2-1.2c-0.4,1.1-1.1,2.2-2.2,2.7c1.1-0.1,1.9-0.4,2.9-0.8C-39.8,88.2-40.6,89.1-41.7,89.8z
	"/>
<g>
	<g>
		<path fill="#BDBDBD" d="M-122.2,584.3h9.1v26.6h15.4v7.6h-24.6v-34.2L-122.2,584.3L-122.2,584.3z"/>
		<path fill="#BDBDBD" d="M-93.8,584.3h9.2v34.3h-9.2V584.3z"/>
		<path fill="#BDBDBD" d="M-81.2,584.3h9.7l8.2,22l8.2-22h9.2l-13.4,34.5h-8.4L-81.2,584.3z"/>
		<path fill="#BDBDBD" d="M-42.8,584.3h24.6v7.9h-15.4v5.3h12.4v7.9h-12.4v5.6h15.4v7.6h-24.6V584.3z"/>
	</g>
	<path fill="#231F20" d="M-231.7,619h1.9l4.2-22.1l4.6,22.1h1.9l5.6-29c0.7-3.3,0.8-4.5,2.2-4.9l1.1-0.3v-0.7h-7.2v0.7l1.1,0.2
		c2,0.4,2,1.6,1.4,5l-3.6,19.1l-3.7-18.9c-0.6-3.1-0.8-4.7,0.8-5.1l1.4-0.3v-0.7h-9.7v0.7l0.7,0.2c1,0.3,1.1,0.9,1.6,2.8l1.2,5.9
		l-2.8,15.1l-3.8-18.8c-0.6-3.1-0.8-4.7,0.8-5l0.8-0.2v-0.7h-9.6v0.7l1.1,0.3c1.2,0.3,1.4,1.5,1.9,3.7L-231.7,619L-231.7,619z
		 M-195.3,609.8c0-10.4-11.6-13-11.6-20.5c0-1.7,0.5-4.2,3.2-4.2c3.7,0,5.3,4.2,5.9,10.5h0.8v-11.4h-0.6c-0.3,1.1-0.7,1.6-1.4,1.6
		c-1.1,0-1.8-1.8-4.7-1.8c-4.4,0-6.8,3.6-6.8,8.2c0,8.7,11.6,12.1,11.6,19.9c0,3.7-1.7,5.8-4,5.8c-3.5,0-6-3.5-6.6-10.5h-0.8v11.4
		h0.6c0.5-1.7,1.2-1.8,1.7-1.8c1,0,2.1,2,5.1,2C-198.3,619-195.3,615.1-195.3,609.8L-195.3,609.8z M-180,587.3c0-1.4,0.5-2,1.5-2.2
		l1-0.2v-0.7h-10.1v0.8l1.4,0.3c1,0.2,1.5,0.7,1.5,2.1v24.3c0,2.7,0,6.3-2.8,6.3c-1.6,0-2.7-1.2-2.6-2.2c0.1-1.7,3-1.6,3.1-4.2
		c0.2-1.8-1-2.7-2.2-2.8c-1.7-0.3-3.7,1.2-3.7,3.9c-0.1,3.5,2.2,6.4,5.9,6.4c4.2,0,7.1-2.8,7.1-8.2L-180,587.3L-180,587.3z
		 M-172.6,614.2c-1.2,0-2.2,1-2.2,2.4s1,2.4,2.2,2.4s2.2-1,2.2-2.4C-170.3,615.2-171.4,614.2-172.6,614.2L-172.6,614.2z"/>
	<polyline fill="#21688E" points="-165.1,584.2 -165.1,619 -134.6,619 -134.6,584.2 -165.1,584.2 	"/>
	<path fill="none" d="M-150.3,613.9c-3.6,0-9.2,0-9.2,0v-24.5h9.2c7.3,0,11.1,1.7,11.1,12.3C-139.3,612.2-143.1,613.9-150.3,613.9
		 M-154.6,610L-154.6,610c0,0,2.8,0,4.2,0c4.3,0,5.9-1.9,5.9-7.5c0-0.4,0-1.2,0-1.6l0,0l0,0l0,0l0,0c0-5.7-1.6-7.4-5.9-7.4
		c-0.8,0-4.2,0-4.2,0V610L-154.6,610L-154.6,610"/>
	<g>
		<g>
			<g>
				<g>
					<path id="SVGID_3_" fill="#FFFFFF" d="M-150.3,613.9c-3.6,0-9.2,0-9.2,0v-24.5h9.2c7.3,0,11.1,1.7,11.1,12.3
						C-139.3,612.2-143.1,613.9-150.3,613.9 M-154.6,610L-154.6,610c0,0,2.8,0,4.2,0c4.3,0,5.9-1.9,5.9-7.5c0-0.4,0-1.2,0-1.6l0,0
						l0,0l0,0l0,0c0-5.7-1.6-7.4-5.9-7.4c-0.8,0-4.2,0-4.2,0V610L-154.6,610L-154.6,610"/>
				</g>
			</g>
		</g>
	</g>
</g>
<path fill="none" stroke="#22688E" stroke-width="2" d="M-206,189.9l16-15.8 M-205.9,174l15.8,16"/>
<g>
	<line fill="none" stroke="#22688E" stroke-width="2" x1="-171" y1="174" x2="-151" y2="174"/>
	<line fill="none" stroke="#22688E" stroke-width="2" x1="-171" y1="182" x2="-151" y2="182"/>
	<line fill="none" stroke="#22688E" stroke-width="2" x1="-171" y1="190" x2="-151" y2="190"/>
</g>
<g>
	<g>
		<path fill="#BDBDBD" d="M-152.7,644.2h6.8V664h11.5v5.7h-18.2v-25.5H-152.7z"/>
		<path fill="#BDBDBD" d="M-131.7,644.2h6.8v25.5h-6.8V644.2z"/>
		<path fill="#BDBDBD" d="M-122.3,644.2h7.2l6.1,16.3l6.1-16.3h6.9l-10,25.6h-6.3L-122.3,644.2z"/>
		<path fill="#BDBDBD" d="M-93.8,644.2h18.2v5.8H-87v3.9h9.2v5.8H-87v4.2h11.5v5.7h-18.2v-25.4H-93.8z"/>
	</g>
	<path fill="#231F20" d="M-234.1,670h1.4l3.1-16.5l3.4,16.5h1.4l4.2-21.5c0.5-2.4,0.6-3.4,1.6-3.6l0.8-0.2v-0.5h-5.3v0.5l0.8,0.1
		c1.5,0.3,1.5,1.2,1,3.7l-2.6,14.2l-2.7-14.1c-0.4-2.3-0.6-3.5,0.6-3.8l1-0.2v-0.5h-7.2v0.5l0.5,0.1c0.7,0.2,0.8,0.6,1.2,2.1
		l0.9,4.4l-2.1,11.2l-2.8-14c-0.4-2.3-0.6-3.5,0.6-3.7l0.6-0.1v-0.5h-7.2v0.5l0.8,0.2c0.9,0.2,1,1.1,1.4,2.7L-234.1,670L-234.1,670z
		 M-207,663.2c0-7.8-8.6-9.7-8.6-15.2c0-1.3,0.3-3.1,2.4-3.1c2.8,0,4,3.1,4.4,7.8h0.6v-8.5h-0.4c-0.2,0.8-0.5,1.2-1,1.2
		c-0.8,0-1.3-1.3-3.5-1.3c-3.2,0-5.1,2.6-5.1,6.1c0,6.5,8.6,9,8.6,14.8c0,2.8-1.2,4.3-3,4.3c-2.6,0-4.4-2.6-4.9-7.8h-0.6v8.5h0.4
		c0.4-1.2,0.9-1.3,1.3-1.3c0.7,0,1.5,1.5,3.8,1.5C-209.3,670-207,667.1-207,663.2L-207,663.2z M-195.7,646.4c0-1,0.3-1.5,1.1-1.6
		l0.7-0.1v-0.5h-7.5v0.6l1,0.2c0.7,0.1,1.1,0.5,1.1,1.5v18.1c0,2,0,4.7-2.1,4.7c-1.2,0-2-0.9-1.9-1.6c0.1-1.2,2.2-1.2,2.3-3.1
		c0.1-1.3-0.7-2-1.6-2.1c-1.2-0.2-2.7,0.9-2.8,2.9c0,2.6,1.6,4.8,4.4,4.8c3.1,0,5.3-2.1,5.3-6.1V646.4L-195.7,646.4z M-190.2,666.5
		c-0.9,0-1.6,0.7-1.6,1.8c0,1,0.7,1.8,1.6,1.8s1.6-0.7,1.6-1.8C-188.5,667.2-189.3,666.5-190.2,666.5L-190.2,666.5z"/>
	<polyline fill="#21688E" points="-184.6,644.1 -184.6,670 -162,670 -162,644.1 -184.6,644.1 	"/>
	<path fill="none" d="M-173.7,666.2c-2.7,0-6.8,0-6.8,0V648h6.8c5.4,0,8.2,1.3,8.2,9.1C-165.4,664.9-168.3,666.2-173.7,666.2
		 M-176.8,663.3L-176.8,663.3c0,0,2.1,0,3.1,0c3.2,0,4.4-1.4,4.4-5.6c0-0.3,0-0.9,0-1.2l0,0l0,0l0,0l0,0c0-4.2-1.2-5.5-4.4-5.5
		c-0.6,0-3.1,0-3.1,0V663.3L-176.8,663.3L-176.8,663.3"/>
	<g>
		<g>
			<g>
				<g>
					<path id="SVGID_7_" fill="#FFFFFF" d="M-173.7,666.2c-2.7,0-6.8,0-6.8,0V648h6.8c5.4,0,8.2,1.3,8.2,9.1
						C-165.4,664.9-168.3,666.2-173.7,666.2 M-176.8,663.3L-176.8,663.3c0,0,2.1,0,3.1,0c3.2,0,4.4-1.4,4.4-5.6c0-0.3,0-0.9,0-1.2
						l0,0l0,0l0,0l0,0c0-4.2-1.2-5.5-4.4-5.5c-0.6,0-3.1,0-3.1,0V663.3L-176.8,663.3L-176.8,663.3"/>
				</g>
			</g>
		</g>
	</g>
</g>
<path fill="#BCD0D8" d="M-156,104c8.3,0,15-6.7,15-15s-6.7-15-15-15c-8.3,0-15,6.7-15,15S-164.2,104-156,104"/>
<polyline fill="none" stroke="#FFFFFF" stroke-width="1.404" points="-161.5,86.1 -156,81.1 -150.4,86.1 "/>
<line fill="none" stroke="#FFFFFF" stroke-width="1.404" x1="-156" y1="81.2" x2="-156" y2="97.5"/>
<path fill="#22B9CD" d="M-2,124c-10.5,0-19,8.5-19,19s8.5,19,19,19s19-8.5,19-19S8.5,124-2,124z M4.5,134.6H1.9c-2,0-2.4,1-2.4,2.3
	v3.1h4.8l-0.6,4.9h-4.1v12.4h-4.9v-12.4h-4.1V140h4.1v-3.6c0-4.1,2.5-6.4,6.2-6.4c1.8,0,3.3,0.2,3.7,0.2L4.5,134.6L4.5,134.6z"/>
<path fill="#22B9CD" d="M48,124c-10.5,0-19,8.5-19,19s8.5,19,19,19s19-8.5,19-19C67.1,132.5,58.5,124,48,124z M58.3,139.8
	c0,0.2,0,0.4,0,0.6c0,6.6-5,14.2-14.2,14.2c-2.8,0-5.4-0.8-7.7-2.3c0.4,0.1,0.8,0.1,1.2,0.1c2.3,0,4.5-0.8,6.2-2.1
	c-2.2-0.1-4-1.5-4.7-3.5c0.3,0.1,0.6,0.1,1,0.1c0.5,0,0.9-0.1,1.3-0.2c-2.3-0.5-4-2.5-4-4.9v-0.1c0.6,0.4,1.5,0.6,2.3,0.6
	c-1.4-0.9-2.3-2.4-2.3-4.1c0-0.9,0.2-1.8,0.6-2.5c2.5,3,6.1,5,10.3,5.3c-0.1-0.4-0.2-0.7-0.2-1.1c0-2.7,2.3-5,5-5
	c1.5,0,2.7,0.6,3.6,1.6c1.1-0.2,2.2-0.6,3.2-1.2c-0.4,1.1-1.1,2.2-2.2,2.7c1.1-0.1,1.9-0.4,2.9-0.8C60.2,138.1,59.4,139,58.3,139.8z
	"/>
<path fill="#FFFFFF" d="M-2,74c-10.5,0-19,8.5-19,19s8.5,19,19,19s19-8.5,19-19S8.5,74-2,74z M4.5,84.7H1.9c-2,0-2.4,1-2.4,2.3v3.1
	h4.8L3.7,95h-4.1v12.4h-4.9V95h-4.1v-4.9h4.1v-3.6c0-4.1,2.5-6.4,6.2-6.4c1.8,0,3.3,0.2,3.7,0.2L4.5,84.7L4.5,84.7z"/>
<path fill="#FFFFFF" d="M48,74c-10.5,0-19,8.5-19,19s8.5,19,19,19s19-8.5,19-19C67.1,82.5,58.5,74,48,74z M58.3,89.8
	c0,0.2,0,0.4,0,0.6c0,6.6-5,14.2-14.2,14.2c-2.8,0-5.4-0.8-7.7-2.3c0.4,0.1,0.8,0.1,1.2,0.1c2.3,0,4.5-0.8,6.2-2.1
	c-2.2-0.1-4-1.5-4.7-3.5c0.3,0.1,0.6,0.1,1,0.1c0.5,0,0.9-0.1,1.3-0.2c-2.3-0.5-4-2.5-4-4.9v-0.1c0.6,0.4,1.5,0.6,2.3,0.6
	c-1.4-0.9-2.3-2.4-2.3-4.1c0-0.9,0.2-1.8,0.6-2.5c2.5,3,6.1,5,10.3,5.3c-0.1-0.4-0.2-0.7-0.2-1.1c0-2.7,2.3-5,5-5
	c1.5,0,2.7,0.6,3.6,1.6c1.1-0.2,2.2-0.6,3.2-1.2c-0.4,1.1-1.1,2.2-2.2,2.7c1.1-0.1,1.9-0.4,2.9-0.8C60.2,88.2,59.4,89.1,58.3,89.8z"
	/>
<g>
	<g>
		<path d="M-216.5-1.3h-7.2v-0.6h0.4c0.5,0,0.8-0.2,0.8-0.9v-11.7c0-0.6-0.3-0.9-0.8-0.9h-0.4V-16h7.3v5h-0.5v-0.1
			c0-2.9-0.9-4.3-2.5-4.3h-1.2v6h0.3c0.9,0,1.4-0.9,1.4-2.7v-0.1h0.5v6.3h-0.5l0,0c0-1.8-0.4-2.8-1.4-2.8h-0.3v6.6h1.1
			c1.5,0,2.5-1.5,2.5-4.3l0,0h0.5L-216.5-1.3L-216.5-1.3z"/>
		<path d="M-224.2-1.3h-4.3v-0.6h0.4c0.5,0,0.8-0.2,0.8-0.9v-5.6h-3.1v5.7c0,0.6,0.3,0.9,0.8,0.9h0.4v0.6h-4.3v-0.6h0.4
			c0.5,0,0.8-0.2,0.8-0.9v-11.8c0-0.6-0.3-0.9-0.8-0.9h-0.4V-16h4.3v0.6h-0.4c-0.5,0-0.8,0.2-0.8,0.9v5.2h3.1v-5.2
			c0-0.6-0.3-0.9-0.8-0.9h-0.4V-16h4.3v0.6h-0.4c-0.5,0-0.8,0.2-0.8,0.9v11.8c0,0.6,0.3,0.9,0.8,0.9h0.4V-1.3z"/>
		<path d="M-233.6-10.8h-0.5v-0.1c0-2.3-0.9-4.4-1.8-4.4h-0.4v12.6c0,0.6,0.3,0.9,0.8,0.9h0.5v0.6h-4.4v-0.6h0.4
			c0.5,0,0.8-0.2,0.8-0.9v-12.5h-0.4c-1,0-1.8,1.8-1.8,4.4v0.1h-0.6v-5h7.5v4.9C-233.5-10.8-233.6-10.8-233.6-10.8z"/>
		<path d="M-180.6-1.3h-7.1v-0.6h0.5c0.5,0,0.8-0.2,0.8-0.8v-11.7c0-0.6-0.3-0.8-0.8-0.8h-0.4v-0.6h4.2v0.6h-0.3
			c-0.5,0-0.8,0.2-0.8,0.8v12.5h1.1c1.9,0,2.4-2.2,2.4-4.3l0,0h0.5L-180.6-1.3L-180.6-1.3z"/>
		<path d="M-187.9-1.3h-7.1l0.3-0.6h0.2c0.5,0,0.8-0.2,0.8-0.8v-11.7c0-0.6-0.3-0.8-0.8-0.8h-0.4v-0.6h4.2v0.6h-0.3
			c-0.5,0-0.8,0.2-0.8,0.8v12.5h1.1c1.9,0,2.4-2.2,2.4-4.3l0,0h0.5L-187.9-1.3L-187.9-1.3z"/>
		<path d="M-200.7-15.2L-200.7-15.2c-0.8,0-1.2,0.1-1.4,1.4l-2.6,12.7h-0.8l-1.6-8.3l0,0l-1.6,8.3h-0.8l-2.6-13.2
			c-0.2-0.9-0.4-1-1.1-1h-0.1v-0.6h3.9v0.6h-0.1c-0.6,0-0.7,0.2-0.7,0.6c0,0.1,0,0.2,0,0.3l1.6,8.8l0,0l1.1-5.8l-0.6-2.9
			c-0.1-0.7-0.3-1-0.9-1h-0.1v-0.6h3.8v0.6h-0.1c-0.7,0-0.9,0.3-0.9,0.8c0,0.1,0,0.3,0.1,0.5l1.6,8.4l0,0l1.5-8.4c0-0.1,0-0.2,0-0.4
			c0-0.6-0.2-0.9-1-0.9h-0.1v-0.6h3.2L-200.7-15.2L-200.7-15.2z"/>
		<path d="M-194.7-1.3h-4v-0.6h0.1c0.8,0,1-0.2,1-0.6c0-0.1,0-0.3-0.1-0.4l-0.3-1.9h-2.4l-0.3,1.9c0,0.2-0.1,0.3-0.1,0.4
			c0,0.5,0.2,0.6,0.9,0.6h0.1v0.6h-3v-0.6h0.2c0.6,0,1-0.2,1.2-1L-199-16h0.9l2.5,13c0.2,0.8,0.6,1.1,0.9,1.1h0.1v0.6
			C-194.6-1.3-194.7-1.3-194.7-1.3z M-198.2-5.5l-1.1-6.4l0,0l-1.1,6.4H-198.2z"/>
		<path d="M-130.7-10.8h-0.5v-0.1c0-2.3-0.9-4.4-1.8-4.4h-0.4v12.6c0,0.6,0.3,0.9,0.8,0.9h0.5v0.6h-4.4v-0.6h0.4
			c0.5,0,0.8-0.2,0.8-0.9v-12.5h-0.4c-1,0-1.8,1.8-1.8,4.4v0.1h-0.5v-5h7.5L-130.7-10.8L-130.7-10.8z"/>
		<path d="M-138.8-1.3h-7.2v-0.6h0.4c0.5,0,0.8-0.2,0.8-0.9v-11.7c0-0.6-0.3-0.9-0.8-0.9h-0.4V-16h7.3v5h-0.5v-0.1
			c0-2.9-0.9-4.3-2.5-4.3h-1.2v6h0.3c0.9,0,1.4-0.9,1.4-2.7v-0.1h0.5v6.3h-0.5l0,0c0-1.8-0.4-2.8-1.4-2.8h-0.3v6.6h1.1
			c1.5,0,2.5-1.5,2.5-4.3l0,0h0.5L-138.8-1.3L-138.8-1.3z"/>
		<path d="M-146.4-1.3h-7.2v-0.6h0.4c0.5,0,0.8-0.2,0.8-0.9v-11.7c0-0.6-0.3-0.9-0.8-0.9h-0.4V-16h7.2v5h-0.5v-0.1
			c0-2.9-0.9-4.3-2.4-4.3h-1.2v6h0.3c0.9,0,1.4-0.9,1.4-2.7v-0.1h0.5v6.3h-0.5l0,0c0-1.8-0.4-2.8-1.4-2.8h-0.3v6.6h1.1
			c1.5,0,2.5-1.5,2.5-4.3l0,0h0.5L-146.4-1.3L-146.4-1.3z"/>
		<path d="M-162.7-10.8h-0.5v-0.1c0-2.3-0.9-4.4-1.8-4.4h-0.4v12.6c0,0.6,0.3,0.9,0.8,0.9h0.5v0.6h-4.4v-0.6h0.4
			c0.5,0,0.8-0.2,0.8-0.9v-12.5h-0.4c-1,0-1.8,1.8-1.8,4.4v0.1h-0.5v-5h7.5L-162.7-10.8L-162.7-10.8z"/>
		<path d="M-170.1-4.9c0,2.5-1.5,3.6-3.3,3.6c-1.3,0-1.8-0.4-2.5-0.9l-0.3,0.8h-0.4v-4.9h0.5v0.1c0,3.5,1.7,4.3,2.6,4.3
			c1.4,0,1.8-0.8,1.8-2.3c0-1.6-1.1-2.9-2.5-4s-2.5-2.3-2.5-4.5s1.4-3.3,2.9-3.3c1.3,0,1.9,0.6,2.2,0.9l0.4-0.7h0.4v5h-0.6V-11
			c0-2.7-0.8-4.4-2.3-4.4c-1,0-1.5,0.7-1.5,1.8c0,1.4,0.8,2.1,2.2,3.3C-171.4-8.8-170.1-7.5-170.1-4.9"/>
		<path d="M-153.8-3.3c0,1.3-0.5,2-1.6,2c-1.1,0-1.6-0.9-1.7-2.7l-0.1-2.7c-0.1-1.5-0.6-1.8-1.4-1.8h-0.5v5.7c0,0.6,0.2,0.9,0.7,0.9
			h0.5v0.6h-4.3V-2h0.4c0.5,0,0.8-0.2,0.8-0.9v-11.6c0-0.6-0.3-0.9-0.8-0.9h-0.4V-16h3.9c2.3,0,3.8,1.3,3.8,3.5
			c0,2.4-1.6,3.3-3.1,3.6l0,0c1.2,0.1,2.2,1.1,2.3,2.4l0.2,3.2c0,0.6,0.1,0.8,0.4,0.8c0.4,0,0.4-0.3,0.4-1.3v-0.5h0.6L-153.8-3.3
			L-153.8-3.3z M-156.6-12.2c0-2.2-0.9-2.9-2-2.9h-0.5V-9h0.5C-157.3-9-156.6-9.9-156.6-12.2"/>
		<path d="M-75-1.3h-7.1l0.3-0.6h0.2c0.5,0,0.8-0.2,0.8-0.8v-11.7c0-0.6-0.3-0.8-0.8-0.8H-82v-0.6h4.2v0.6h-0.3
			c-0.5,0-0.8,0.2-0.8,0.8v12.5h1.1c1.9,0,2.4-2.2,2.4-4.3l0,0h0.5L-75-1.3L-75-1.3z"/>
		<path d="M-72.6-2.3c0,0.6-0.4,1-0.8,1s-0.8-0.5-0.8-1c0-0.6,0.4-1,0.8-1S-72.6-2.7-72.6-2.3"/>
		<path d="M-89.3-15.2h-0.4c-0.5,0-0.8,0.4-0.8,1.1v13h-0.7l-4.5-11.4l0,0v9.8c0,0.7,0.4,1.1,0.8,1.1h0.4V-1h-3v-0.6h0.4
			c0.5,0,0.8-0.4,0.8-1.1v-11.7c0-0.5-0.2-0.9-0.7-0.9h-0.5v-0.6h2.7l3.6,9.3l0,0v-7.7c0-0.7-0.4-1.1-0.8-1.1h-0.4V-16h3L-89.3-15.2
			L-89.3-15.2z"/>
		<path d="M-105.4-15.2h-0.8c-0.5,0-0.7,0.4-0.7,1.1v9.7c0,1.9-0.6,3.4-2.6,3.4c-2.1,0-3.4-1.4-3.4-3.4v-9.9c0-0.6-0.3-0.9-0.8-0.9
			h-0.4v-0.6h4.2v0.6h-0.3c-0.5,0-0.8,0.2-0.8,0.9v10c0,1.6,0.6,2.6,1.6,2.6c1.1,0,1.7-0.8,1.7-2.6v-9.8c0-0.7-0.3-1.1-0.7-1.1h-0.4
			v-0.6h3.2L-105.4-15.2L-105.4-15.2z"/>
		<path d="M-121.4-15.2h-0.4c-0.5,0-0.8,0.2-0.8,0.9v10c0,2.2-1.4,3.1-3.2,3.1c-1.3,0-2.5-1.1-2.5-3.1c0-1.1,0.7-1.5,1.2-1.5
			c0.6,0,1,0.4,1,1.1c0,0.9-0.5,1.3-1.2,1.4c0,0.8,0.6,1.6,1.5,1.6s1.3-0.5,1.3-2v-10.6c0-0.6-0.3-0.9-0.8-0.9h-0.4v-0.6h4.2
			L-121.4-15.2L-121.4-15.2z"/>
		<path d="M-81.8-1.3h-4v-0.6h0.1c0.8,0,1-0.2,1-0.6c0-0.1,0-0.3-0.1-0.4l-0.3-1.9h-2.4l-0.3,1.9c0,0.2-0.1,0.3-0.1,0.4
			c0,0.5,0.2,0.6,0.9,0.6h0.1v0.6h-3v-0.6h0.2c0.6,0,1-0.2,1.2-1l2.4-13.1h0.9l2.5,13c0.2,0.8,0.6,1.1,0.9,1.1h0.1L-81.8-1.3
			L-81.8-1.3z M-85.3-5.5l-1.1-6.4l0,0l-1.1,6.4H-85.3z"/>
		<path d="M-97.4-3.3c0,1.3-0.5,2-1.6,2s-1.6-0.9-1.7-2.7l-0.1-2.7c-0.1-1.5-0.6-1.8-1.4-1.8h-0.5v5.7c0,0.6,0.2,0.9,0.7,0.9h0.5
			v0.6h-4.3V-2h0.4c0.5,0,0.8-0.2,0.8-0.9v-11.6c0-0.6-0.3-0.9-0.8-0.9h-0.4V-16h3.9c2.3,0,3.8,1.3,3.8,3.5c0,2.4-1.6,3.3-3.1,3.6
			l0,0c1.2,0.1,2.2,1,2.3,2.4l0.2,3.2c0,0.7,0.1,0.8,0.4,0.8c0.4,0,0.4-0.3,0.4-1.3v-0.5h0.6L-97.4-3.3L-97.4-3.3z M-100.3-12.2
			c0-2.2-0.9-2.9-2-2.9h-0.5V-9h0.5C-101-9-100.3-9.9-100.3-12.2"/>
		<path d="M-114.1-8.6c0,4.1-1.4,7.4-3.7,7.4s-3.7-3.3-3.7-7.4s1.3-7.3,3.7-7.3S-114.1-12.7-114.1-8.6 M-116.3-5.2V-12
			c0-2.5-0.6-3.3-1.5-3.3c-1,0-1.5,0.7-1.5,3.3v6.8c0,2.4,0.5,3.3,1.5,3.3S-116.3-2.8-116.3-5.2"/>
	</g>
	<g>
		<g>
			<g>
				<g>
					<g>
						<g>
							<g>
								<defs>
									<rect id="SVGID_1_" x="-44.6" y="-16" width="113.5" height="17.1"/>
								</defs>
								<clipPath id="SVGID_2_">
									<use xlink:href="#SVGID_1_"  overflow="visible"/>
								</clipPath>
								<polyline clip-path="url(#SVGID_2_)" fill="#271F10" points="0.3,-2.2 -3.5,-2.2 -5.8,-12.5 -8.3,-2.2 -11.9,-2.2 
									-15.3,-15.7 -12.3,-15.7 -10.1,-5.8 -7.7,-15.7 -4,-15.7 -1.7,-5.8 0.5,-15.7 3.6,-15.7 0.3,-2.2 								"/>
							</g>
						</g>
					</g>
				</g>
			</g>
		</g>
		<g>
			<g>
				<g>
					<g>
						<g>
							<g>
								<defs>
									<rect id="SVGID_4_" x="-44.6" y="-16" width="113.5" height="17.1"/>
								</defs>
								<clipPath id="SVGID_5_">
									<use xlink:href="#SVGID_4_"  overflow="visible"/>
								</clipPath>
								<path clip-path="url(#SVGID_5_)" fill="#271F10" d="M9.6,0.2c0.4-0.5,1.3-2.3,1.3-3.9s0-12,0-12h3c0,0,0,10.4,0,12.5
									c0,2.4-1,3.1-1.7,4.4L9.6,0.2"/>
							</g>
						</g>
					</g>
				</g>
			</g>
		</g>
		<g>
			<g>
				<g>
					<g>
						<g>
							<g>
								<defs>
									<rect id="SVGID_6_" x="-44.6" y="-16" width="113.5" height="17.1"/>
								</defs>
								<clipPath id="SVGID_8_">
									<use xlink:href="#SVGID_6_"  overflow="visible"/>
								</clipPath>
								<path clip-path="url(#SVGID_8_)" fill="#271F10" d="M63.8-1.9c-1.5,0-3.5-0.4-4.6-1l0.6-2.7c1.2,0.6,2.7,1,3.7,1
									c1.5,0,2.2-0.6,2.2-1.4c0-0.6-0.8-1.2-2.9-2.1c-2.3-1.1-3.5-2.3-3.5-4.1c0-2.2,1.5-4,5-4c1.3,0,2.8,0.3,4.2,0.8l-0.6,2.8
									c-1-0.4-2-0.8-3.4-0.8c-1.3,0-2.1,0.5-2.1,1.4c0,0.6,0.8,1.2,2.5,1.9c2.7,1.2,3.8,2.5,3.8,4.3C68.8-3.5,67-1.9,63.8-1.9"/>
							</g>
						</g>
					</g>
				</g>
			</g>
		</g>
		<g>
			<g>
				<g>
					<g>
						<g>
							<g>
								<defs>
									<rect id="SVGID_9_" x="-44.6" y="-16" width="113.5" height="17.1"/>
								</defs>
								<clipPath id="SVGID_10_">
									<use xlink:href="#SVGID_9_"  overflow="visible"/>
								</clipPath>
								<path clip-path="url(#SVGID_10_)" fill="#271F10" d="M-16.9-11.6c-0.7-2-2.7-4.3-6.4-4.3s-5.7,2.3-6.4,4.3
									c-0.6,1.7-0.5,4,0,5.5c0.8,2.4,3.1,4.4,6.4,4.4s5.6-1.9,6.4-4.4C-16.4-7.7-16.3-9.9-16.9-11.6 M-19.9-6.7
									c-0.6,1.5-1.7,2.3-3.3,2.3c-1.6,0-2.7-0.8-3.3-2.3c-0.6-1.5-0.6-3.3,0-4.5c0.6-1.3,1.6-2.1,3.3-2.1c1.6,0,2.6,0.9,3.3,2.1
									C-19.4-10-19.4-8.2-19.9-6.7z"/>
							</g>
						</g>
					</g>
				</g>
			</g>
		</g>
		<g>
			<g>
				<g>
					<g>
						<g>
							<g>
								<defs>
									<rect id="SVGID_11_" x="-44.6" y="-16" width="113.5" height="17.1"/>
								</defs>
								<clipPath id="SVGID_12_">
									<use xlink:href="#SVGID_11_"  overflow="visible"/>
								</clipPath>
								<path clip-path="url(#SVGID_12_)" fill="#271F10" d="M-38.5-15.7c3.2,0,5,1.9,5.6,3.8c0.7,1.8,0.9,4.1,0,6.2S-35.6-2-38.3-2
									h-6.3v-13.6L-38.5-15.7 M-41.6-4.8h2.7c1.6,0,2.5-1,3.1-2.1c0.5-1.1,0.6-2.8,0.1-4.1s-1.5-2.1-3.1-2.1h-2.8V-4.8z"/>
							</g>
						</g>
					</g>
				</g>
			</g>
		</g>
		<g>
			<g>
				<g>
					<g>
						<g>
							<g>
								<defs>
									<rect id="SVGID_13_" x="-44.6" y="-16" width="113.5" height="17.1"/>
								</defs>
								<clipPath id="SVGID_14_">
									<use xlink:href="#SVGID_13_"  overflow="visible"/>
								</clipPath>
								<path clip-path="url(#SVGID_14_)" fill="#271F10" d="M27.1-8.7c0,0.7-0.2,1.5-0.4,2c-0.6,1.5-1.7,2.3-3.3,2.3
									c-1.2,0-2-0.4-2.7-1.2C19.7-5,19-4.5,18.2-4c1.2,1.4,2.9,2.2,5.2,2.2c3.3,0,5.6-1.9,6.4-4.4c0.3-1.1,0.5-2.4,0.3-3.8
									C29-9.5,28-9.1,27.1-8.7"/>
							</g>
						</g>
					</g>
				</g>
			</g>
		</g>
		<g>
			<g>
				<g>
					<g>
						<g>
							<g>
								<defs>
									<rect id="SVGID_15_" x="-44.6" y="-16" width="113.5" height="17.1"/>
								</defs>
								<clipPath id="SVGID_16_">
									<use xlink:href="#SVGID_15_"  overflow="visible"/>
								</clipPath>
								<path clip-path="url(#SVGID_16_)" fill="#271F10" d="M32.6-2.2h3v-9.2c-1.1,0.2-2,0.5-3,0.8V-2.2 M41.5-12.4v6.6l-3.2-6.1
									c-0.9,0.2-1.8,0.4-2.7,0.6L40.7-2h3.8v-10.7C43.4-12.7,42.5-12.6,41.5-12.4z"/>
							</g>
						</g>
					</g>
				</g>
			</g>
		</g>
		<g>
			<g>
				<g>
					<g>
						<g>
							<g>
								<defs>
									<rect id="SVGID_17_" x="-44.6" y="-16" width="113.5" height="17.1"/>
								</defs>
								<clipPath id="SVGID_18_">
									<use xlink:href="#SVGID_17_"  overflow="visible"/>
								</clipPath>
								<path clip-path="url(#SVGID_18_)" fill="#057DC1" d="M30.1-9.9c-0.1-0.7-0.2-1.3-0.4-1.8C29-13.7,27-16,23.3-16
									s-5.7,2.3-6.4,4.3c-0.6,1.7-0.5,4,0,5.5c0.2,0.8,0.7,1.5,1.2,2.1c0.8-0.5,1.6-1.1,2.5-1.6C20.3-6,20.1-6.4,20-6.8
									c-0.6-1.5-0.6-3.3,0-4.5c0.6-1.3,1.6-2.1,3.3-2.1c1.6,0,2.6,0.9,3.3,2.1c0.3,0.7,0.5,1.5,0.4,2.3C28-9.1,29-9.5,30.1-9.9"/>
							</g>
						</g>
					</g>
				</g>
			</g>
		</g>
		<g>
			<g>
				<g>
					<g>
						<g>
							<g>
								<defs>
									<rect id="SVGID_19_" x="-44.6" y="-16" width="113.5" height="17.1"/>
								</defs>
								<clipPath id="SVGID_20_">
									<use xlink:href="#SVGID_19_"  overflow="visible"/>
								</clipPath>
								<path clip-path="url(#SVGID_20_)" fill="#057DC1" d="M41.5-15.7v3.2c1-0.1,2-0.2,3-0.3v-2.9H41.5 M32.6-15.7v5
									c1-0.3,1.9-0.5,3-0.8l0,0l0,0l0,0c0.9-0.2,1.7-0.4,2.7-0.6l-1.9-3.7L32.6-15.7L32.6-15.7z"/>
							</g>
						</g>
					</g>
				</g>
			</g>
		</g>
		<g>
			<g>
				<g>
					<g>
						<g>
							<g>
								<defs>
									<rect id="SVGID_21_" x="-44.6" y="-16" width="113.5" height="17.1"/>
								</defs>
								<clipPath id="SVGID_22_">
									<use xlink:href="#SVGID_21_"  overflow="visible"/>
								</clipPath>
								<path clip-path="url(#SVGID_22_)" fill="#057DC1" d="M47.8-15.7v2.7c1,0,2-0.1,3-0.1h6v-2.6H47.8"/>
							</g>
						</g>
					</g>
				</g>
			</g>
		</g>
		<g>
			<g>
				<g>
					<g>
						<g>
							<g>
								<defs>
									<rect id="SVGID_23_" x="-44.6" y="-16" width="113.5" height="17.1"/>
								</defs>
								<clipPath id="SVGID_24_">
									<use xlink:href="#SVGID_23_"  overflow="visible"/>
								</clipPath>
								<path clip-path="url(#SVGID_24_)" fill="#271F10" d="M50.8-4.8v-3.1h5.1v-2.6h-5.1v-2.6c-1.1,0-2,0-3,0.1v10.8h9.1v-2.6
									H50.8"/>
							</g>
						</g>
					</g>
				</g>
			</g>
		</g>
	</g>
	<line fill="none" stroke="#000000" stroke-miterlimit="10" x1="-60.1" y1="-15" x2="-60.1" y2="-1.5"/>
</g>
<g>
	
		<rect x="-136.7" y="33.5" transform="matrix(0.7071 0.7071 -0.7071 0.7071 -9.9328 91.9854)" fill="#22688E" width="41.4" height="1"/>
	
		<rect x="-116.5" y="13.3" transform="matrix(0.7071 0.7071 -0.7071 0.7071 -9.9325 91.9853)" fill="#22688E" width="1" height="41.4"/>
</g>
<g>
	
		<rect x="-96.7" y="33.5" transform="matrix(0.7071 0.7071 -0.7071 0.7071 1.7825 63.7009)" fill="#22B9CD" width="41.4" height="1"/>
	
		<rect x="-76.5" y="13.3" transform="matrix(0.7071 0.7071 -0.7071 0.7071 1.7825 63.7003)" fill="#22B9CD" width="1" height="41.4"/>
</g>
<polygon fill="#BCD0D8" points="-15.3,34 -30.3,19 -31,19.7 -16.7,34 -31,48.3 -30.3,49 "/>
<polygon fill="#FFFFFF" points="-0.3,19 -1,19.7 13.3,34 -1,48.3 -0.3,49 14.7,34 "/>
<polygon fill="#22688E" points="44.7,34 29.7,19 29,19.7 43.3,34 29,48.3 29.7,49 "/>
<polygon fill="#22B9CD" points="59.7,19 59,19.7 73.3,34 59,48.3 59.7,49 74.7,34 "/>
<g>
	<rect x="139" y="84" fill="none" width="160" height="100"/>
	<polygon fill="#22688E" points="231,134 213,144 213,124 	"/>
</g>
<g>
	<g>
		<g>
			<g>
				<g>
					<g>
						<path fill="#0C2A31" d="M-111,338.9v-6.3h2.6c1.6,0,2.6,0.9,2.6,2.3v1.6c0,1.4-0.9,2.3-2.6,2.3H-111z M-107.1,334.9
							c0-0.7-0.6-1.1-1.3-1.1h-1.3v3.9h1.3c0.7,0,1.3-0.4,1.3-1.1V334.9z"/>
					</g>
				</g>
				<g>
					<g>
						<path fill="#0C2A31" d="M-101.8,339c-1.6,0-2.6-0.9-2.6-2.3v-1.8c0-1.4,0.9-2.3,2.6-2.3c1.6,0,2.6,0.9,2.6,2.3v1.8
							C-99.2,338.1-100.1,339-101.8,339z M-100.5,334.8c0-0.7-0.6-1.1-1.3-1.1c-0.7,0-1.3,0.4-1.3,1.1v1.8c0,0.7,0.6,1.1,1.3,1.1
							c0.7,0,1.3-0.4,1.3-1.1V334.8z"/>
					</g>
				</g>
				<g>
					<g>
						<path fill="#0C2A31" d="M-94.1,335.4l-1.1,3.5h-1.4l-1.3-6.3h1.3l0.8,4.3l1.3-4.3h0.8l1.3,4.3l0.8-4.3h1.3l-1.3,6.3H-93
							L-94.1,335.4z"/>
					</g>
				</g>
				<path fill="#0C2A31" d="M-83.4,332.6h1.3v4.5c0,1.3-0.8,1.9-2,1.9c-1.3,0-2-0.6-2-1.9h1.3c0,0.5,0.3,0.7,0.7,0.7
					c0.5,0,0.7-0.3,0.7-0.7V332.6z"/>
				<path fill="#0C2A31" d="M-77.9,339c-1.6,0-2.6-0.9-2.6-2.3v-1.8c0-1.4,0.9-2.3,2.6-2.3c1.6,0,2.6,0.9,2.6,2.3v1.8
					C-75.3,338.1-76.2,339-77.9,339z M-76.6,334.8c0-0.7-0.6-1.1-1.3-1.1c-0.7,0-1.3,0.4-1.3,1.1v1.8c0,0.7,0.6,1.1,1.3,1.1
					c0.7,0,1.3-0.4,1.3-1.1V334.8z"/>
				<path fill="#0C2A31" d="M-68.5,338.9h-1.3l-2.6-4.1v4.1h-1.3v-6.3h1.3l2.6,4.1v-4.1h1.3V338.9z"/>
				<path fill="#0C2A31" d="M-65.4,335.1h2.6v1.2h-2.6v1.4h2.9v1.2h-4.2v-6.3h4.2v1.2h-2.9V335.1z"/>
				<path fill="#0C2A31" d="M-61.2,336.9h1.4c0.1,0.5,0.5,0.9,1.2,0.9c0.6,0,1-0.2,1-0.6c0-0.4-0.2-0.6-0.7-0.7l-1.2-0.3
					c-1.1-0.3-1.6-0.9-1.6-1.9c0-1.3,1.1-1.8,2.3-1.8c1.4,0,2.2,0.7,2.4,1.8h-1.4c-0.1-0.4-0.6-0.6-1-0.6c-0.5,0-0.9,0.2-0.9,0.6
					c0,0.4,0.3,0.5,0.7,0.6l1.1,0.3c1.1,0.3,1.6,0.9,1.6,1.9c0,1.1-0.8,1.8-2.3,1.8C-60.2,339-61.1,338.2-61.2,336.9z"/>
			</g>
		</g>
		<g>
			<g>
				<path fill="#00A2D4" d="M-74.5,296.2c-0.1-0.8-0.1-1.1-0.2-1.6c-0.7-2.6-3.1-4.5-6-4.5h-12v24.3h6.1v6.1h-12.2V284h18.2
					c6.1,0,11.2,4.5,12.1,10.4c0.1,0.6,0.1,1.2,0.1,1.8L-74.5,296.2z"/>
			</g>
			<g>
				<path fill="#00A2D4" d="M-68.5,300.7v7.5c0,6.7-5.7,12.2-12.4,12.2h-1.3v-6.1h1.2c3.4,0,6.4-2.8,6.4-6.2v-7.5H-68.5z"/>
			</g>
		</g>
	</g>
	<g>
		<path d="M-5.1,308.1h-6.4v-0.5h0.3c0.4,0,0.7-0.2,0.7-0.7v-10.4c0-0.5-0.3-0.7-0.7-0.7h-0.3v-0.5h6.4v4.4h-0.4v0
			c0-2.6-0.8-3.8-2.2-3.8h-1.1v5.3h0.3c0.8,0,1.2-0.8,1.2-2.4v0h0.4v5.6h-0.4v0c0-1.6-0.4-2.5-1.2-2.5h-0.3v5.8h1
			c1.4,0,2.3-1.4,2.3-3.8v0h0.4V308.1z"/>
		<path d="M-12,308.1h-3.7v-0.5h0.3c0.4,0,0.7-0.2,0.7-0.7v-5h-2.7v5c0,0.5,0.3,0.7,0.7,0.7h0.3v0.5h-3.8v-0.5h0.3
			c0.4,0,0.7-0.2,0.7-0.7v-10.4c0-0.5-0.3-0.7-0.7-0.7h-0.3v-0.5h3.8v0.5h-0.3c-0.4,0-0.7,0.2-0.7,0.7v4.7h2.7v-4.7
			c0-0.5-0.3-0.7-0.7-0.7h-0.3v-0.5h3.7v0.5h-0.3c-0.4,0-0.7,0.2-0.7,0.7v10.4c0,0.5,0.3,0.7,0.7,0.7h0.3V308.1z"/>
		<path d="M-20.4,299.7h-0.4v0c0-2.1-0.8-3.8-1.7-3.8h-0.4v11.1c0,0.5,0.3,0.7,0.7,0.7h0.4v0.5h-3.9v-0.5h0.4c0.4,0,0.7-0.2,0.7-0.7
			v-11.1h-0.3c-0.9,0-1.7,1.7-1.7,3.8v0H-27v-4.4h6.6V299.7z"/>
		<path d="M26.8,308.1h-6.3v-0.5h0.4c0.4,0,0.7-0.2,0.7-0.7v-10.4c0-0.5-0.3-0.7-0.7-0.7h-0.3v-0.5h3.7v0.5H24
			c-0.4,0-0.7,0.2-0.7,0.7v11.1h0.9c1.7,0,2.1-2,2.1-3.8v0h0.4V308.1z"/>
		<path d="M20.2,308.1h-6.3l0.3-0.5h0.2c0.4,0,0.7-0.2,0.7-0.7v-10.4c0-0.5-0.3-0.7-0.7-0.7H14v-0.5h3.7v0.5h-0.3
			c-0.4,0-0.7,0.2-0.7,0.7v11.1h0.9c1.7,0,2.1-2,2.1-3.8v0h0.4V308.1z"/>
		<path d="M8.9,295.7H8.8c-0.6,0-0.9,0.1-1.1,1.2l-2.3,11.3H4.6l-1.4-7.4h0l-1.5,7.4H1l-2.2-11.6c-0.1-0.7-0.4-0.9-1-0.9h0v-0.5h3.4
			v0.5H1.1c-0.5,0-0.6,0.2-0.6,0.5c0,0.1,0,0.2,0,0.3l1.4,7.8h0l0.9-5.2l-0.5-2.6c-0.1-0.6-0.3-0.9-0.8-0.9H1.6v-0.5h3.4v0.5H4.8
			c-0.6,0-0.8,0.2-0.8,0.7c0,0.1,0,0.3,0,0.4l1.4,7.5h0l1.3-7.5c0-0.1,0-0.2,0-0.3c0-0.5-0.2-0.7-0.8-0.7H6.1v-0.5h2.8V295.7z"/>
		<path d="M14.2,308.1h-3.6v-0.5h0.1c0.6,0,0.8-0.2,0.8-0.5c0-0.1,0-0.2,0-0.4l-0.3-1.7H9.1l-0.3,1.7c0,0.2,0,0.3,0,0.4
			c0,0.4,0.2,0.5,0.8,0.5h0.1v0.5H6.9v-0.5h0.1c0.5,0,0.9-0.1,1-0.9l2.2-11.6h0.8l2.2,11.6c0.1,0.7,0.5,0.9,0.8,0.9h0.1V308.1z
			 M11.1,304.4l-0.9-5.7h0l-0.9,5.7H11.1z"/>
		<path d="M71.1,299.7h-0.4v0c0-2.1-0.8-3.8-1.7-3.8h-0.4v11.1c0,0.5,0.3,0.7,0.7,0.7h0.4v0.5h-3.9v-0.5h0.4c0.4,0,0.7-0.2,0.7-0.7
			v-11.1h-0.3c-0.9,0-1.7,1.7-1.7,3.8v0h-0.4v-4.4h6.6V299.7z"/>
		<path d="M63.9,308.1h-6.4v-0.5h0.3c0.4,0,0.7-0.2,0.7-0.7v-10.4c0-0.5-0.2-0.7-0.7-0.7h-0.3v-0.5h6.4v4.4h-0.4v0
			c0-2.6-0.8-3.8-2.2-3.8h-1.1v5.3h0.3c0.8,0,1.2-0.8,1.2-2.4v0h0.4v5.6h-0.4v0c0-1.6-0.4-2.5-1.2-2.5h-0.3v5.8h1
			c1.4,0,2.3-1.4,2.3-3.8v0h0.4V308.1z"/>
		<path d="M57.1,308.1h-6.4v-0.5H51c0.4,0,0.7-0.2,0.7-0.7v-10.4c0-0.5-0.2-0.7-0.7-0.7h-0.3v-0.5h6.4v4.4h-0.4v0
			c0-2.6-0.8-3.8-2.2-3.8h-1.1v5.3h0.3c0.8,0,1.2-0.8,1.2-2.4v0h0.4v5.6h-0.4v0c0-1.6-0.4-2.5-1.2-2.5h-0.3v5.8h1
			c1.4,0,2.3-1.4,2.3-3.8v0h0.4V308.1z"/>
		<path d="M42.7,299.7h-0.4v0c0-2.1-0.8-3.8-1.7-3.8h-0.4v11.1c0,0.5,0.3,0.7,0.7,0.7h0.4v0.5h-3.9v-0.5h0.4c0.4,0,0.7-0.2,0.7-0.7
			v-11.1h-0.3c-0.9,0-1.7,1.7-1.7,3.8v0h-0.4v-4.4h6.6V299.7z"/>
		<path d="M36.1,305c0,2.3-1.3,3.2-2.9,3.2c-1.1,0-1.7-0.4-2.2-0.8l-0.3,0.7h-0.3v-4.4h0.4v0.1c0,3.1,1.5,3.8,2.3,3.8
			c1.2,0,1.7-0.7,1.7-2c0-1.5-0.9-2.6-2.2-3.6c-1.2-0.9-2.3-2-2.3-3.9c0-1.9,1.2-2.9,2.6-2.9c1.2,0,1.7,0.5,2,0.8l0.3-0.6h0.3v4.4
			H35v-0.1c0-2.4-0.7-3.9-2.1-3.9c-0.9,0-1.3,0.6-1.3,1.7c0,1.2,0.7,1.9,2,2.9C35,301.4,36.1,302.6,36.1,305"/>
		<path d="M50.6,306.3c0,1.1-0.4,1.8-1.4,1.8c-1,0-1.5-0.8-1.5-2.4l-0.1-2.4c-0.1-1.3-0.5-1.6-1.2-1.6h-0.5v5.1
			c0,0.5,0.2,0.7,0.6,0.7h0.4v0.5h-3.8v-0.5h0.4c0.4,0,0.7-0.2,0.7-0.7v-10.4c0-0.5-0.3-0.7-0.7-0.7h-0.4v-0.5h3.4
			c2.1,0,3.4,1.1,3.4,3.1c0,2.1-1.4,2.9-2.7,3.2v0c1,0.1,2,0.9,2.1,2.1l0.1,2.8c0,0.6,0.1,0.7,0.3,0.7c0.3,0,0.4-0.2,0.4-1.1v-0.5
			h0.5V306.3z M48.1,298.4c0-2-0.8-2.6-1.8-2.6h-0.4v5.4h0.5C47.4,301.2,48.1,300.4,48.1,298.4"/>
		<path d="M120.5,308.1h-6.3l0.2-0.5h0.2c0.4,0,0.7-0.2,0.7-0.7v-10.4c0-0.5-0.3-0.7-0.7-0.7h-0.3v-0.5h3.7v0.5h-0.3
			c-0.4,0-0.7,0.2-0.7,0.7v11.1h0.9c1.7,0,2.1-2,2.1-3.8v0h0.4V308.1z"/>
		<path d="M122.7,307.3c0,0.5-0.3,0.9-0.7,0.9c-0.4,0-0.7-0.4-0.7-0.9c0-0.5,0.3-0.9,0.7-0.9C122.4,306.4,122.7,306.8,122.7,307.3"
			/>
		<path d="M107.9,295.7h-0.3c-0.4,0-0.7,0.3-0.7,0.9v11.5h-0.6l-3.9-10.1h0v8.7c0,0.6,0.3,0.9,0.7,0.9h0.3v0.5h-2.6v-0.5h0.4
			c0.4,0,0.7-0.3,0.7-0.9v-10.2c0-0.5-0.2-0.8-0.6-0.8h-0.5v-0.5h2.4l3.2,8.3h0v-6.9c0-0.6-0.3-0.9-0.7-0.9h-0.3v-0.5h2.6V295.7z"/>
		<path d="M93.5,295.7h-0.7c-0.4,0-0.6,0.3-0.6,0.9v8.6c0,1.7-0.6,3-2.4,3c-1.9,0-3-1.2-3-3v-8.8c0-0.5-0.3-0.7-0.7-0.7h-0.3v-0.5
			h3.7v0.5h-0.2c-0.4,0-0.7,0.2-0.7,0.7v8.9c0,1.4,0.6,2.3,1.5,2.3c1,0,1.6-0.7,1.6-2.3v-8.7c0-0.6-0.2-0.9-0.6-0.9h-0.4v-0.5h2.8
			V295.7z"/>
		<path d="M79.3,295.7H79c-0.4,0-0.7,0.2-0.7,0.7v9c0,2-1.2,2.8-2.8,2.8c-1.1,0-2.3-0.9-2.3-2.8c0-1,0.6-1.4,1.1-1.4
			c0.5,0,0.8,0.4,0.8,1c0,0.8-0.4,1.1-1,1.2c0,0.7,0.5,1.4,1.3,1.4c0.8,0,1.1-0.5,1.1-1.8v-9.3c0-0.5-0.2-0.7-0.7-0.7h-0.3v-0.5h3.7
			V295.7z"/>
		<path d="M114.5,308.1H111v-0.5h0.1c0.6,0,0.8-0.2,0.8-0.5c0-0.1,0-0.2,0-0.4l-0.3-1.7h-2.1l-0.3,1.7c0,0.2,0,0.3,0,0.4
			c0,0.4,0.2,0.5,0.8,0.5h0.1v0.5h-2.7v-0.5h0.1c0.5,0,0.9-0.1,1-0.9l2.2-11.6h0.8l2.2,11.6c0.1,0.7,0.5,0.9,0.8,0.9h0.1V308.1z
			 M111.4,304.4l-0.9-5.7h0l-0.9,5.7H111.4z"/>
		<path d="M100.6,306.3c0,1.1-0.4,1.8-1.4,1.8c-1,0-1.5-0.8-1.5-2.4l-0.1-2.4c-0.1-1.3-0.5-1.6-1.2-1.6h-0.5v5.1
			c0,0.5,0.2,0.7,0.6,0.7H97v0.5h-3.8v-0.5h0.4c0.4,0,0.7-0.2,0.7-0.7v-10.4c0-0.5-0.3-0.7-0.7-0.7h-0.4v-0.5h3.4
			c2.1,0,3.4,1.1,3.4,3.1c0,2.1-1.4,2.9-2.7,3.2v0c1,0.1,2,0.9,2.1,2.1l0.1,2.8c0,0.6,0.1,0.7,0.3,0.7c0.3,0,0.4-0.2,0.4-1.1v-0.5
			h0.5V306.3z M98.1,298.4c0-2-0.8-2.6-1.8-2.6h-0.4v5.4h0.5C97.5,301.2,98.1,300.4,98.1,298.4"/>
		<path d="M85.9,301.6c0,3.6-1.2,6.6-3.3,6.6c-2.1,0-3.3-2.9-3.3-6.6c0-3.7,1.1-6.5,3.3-6.5C84.7,295.1,85.9,298,85.9,301.6
			 M83.9,304.7v-6.1c0-2.2-0.5-2.9-1.4-2.9c-0.9,0-1.3,0.6-1.3,2.9v6c0,2.1,0.4,2.9,1.3,2.9C83.5,307.6,83.9,306.7,83.9,304.7"/>
		<path d="M117.1,325c0.9,0,1.5-0.6,1.8-1.8l1.7-7.3h-1.5l-0.7,4.1h0l-0.8-4.1h-1.8l1.8,6.8l-0.1,0.5c-0.1,0.3-0.2,0.4-0.5,0.4
			c-0.2,0-0.3,0-0.6-0.1l-0.2,1.3C116.5,325,116.7,325,117.1,325 M114.6,322.9c0.3,0,0.6-0.1,0.9-0.2v-1.4c-0.1,0-0.2,0-0.3,0
			c-0.3,0-0.3-0.2-0.3-0.3v-7.4h-1.7v7.9C113.1,322.3,113.5,322.9,114.6,322.9 M110.2,322.9c1.5,0,2.1-0.9,2.1-1.9
			c0-0.8-0.4-1.4-1.2-2.1l-0.6-0.6c-0.4-0.3-0.7-0.6-0.7-0.9c0-0.3,0.1-0.5,0.5-0.5c0.4,0,0.5,0.3,0.6,0.8l1.4,0c-0.1-1.5-0.9-2-2-2
			c-1.5,0-2,1-2,1.9c0,0.8,0.5,1.4,1.1,1.9l0.5,0.5c0.5,0.4,0.8,0.7,0.8,1.1c0,0.3-0.2,0.5-0.4,0.5c-0.4,0-0.5-0.3-0.6-0.8l-1.6,0
			C108.2,322.4,109.1,322.9,110.2,322.9 M104.1,323c0.6,0,1.1-0.3,1.4-0.8h0v0.7h1.6v-6.9h-1.7v4.8c0,0.5-0.2,0.8-0.6,0.8
			c-0.4,0-0.6-0.3-0.6-0.6v-5h-1.7v5.6C102.6,322.4,103.3,323,104.1,323 M99.4,321.6c-0.4,0-0.6-0.3-0.6-0.6v-3.2
			c0-0.4,0.2-0.7,0.6-0.7c0.4,0,0.6,0.3,0.6,0.6v3.2C100,321.3,99.8,321.6,99.4,321.6 M99.4,322.9c1.2,0,2.3-0.7,2.3-2.1v-3
			c0-1.4-1.1-2.1-2.3-2.1c-1.2,0-2.3,0.7-2.3,2.1v3C97.1,322.3,98.1,322.9,99.4,322.9 M94.4,315.1h1.7v-1.8h-1.7V315.1z M94.4,322.8
			h1.7v-6.9h-1.7V322.8z M92.4,322.9c0.3,0,0.8-0.1,1.1-0.2v-1.4c-0.1,0-0.4,0.1-0.6,0.1c-0.3,0-0.4-0.2-0.4-0.4v-3.7h1V316h-1v-1.6
			h-1.7v1.6h-0.6v1.3h0.6v4.2C90.9,322.5,91.6,322.9,92.4,322.9 M87.7,315.1h1.7v-1.8h-1.7V315.1z M87.7,322.8h1.7v-6.9h-1.7V322.8z
			 M84.4,321.6c-0.3,0-0.6-0.3-0.6-0.7v-3c0-0.5,0.3-0.8,0.6-0.8c0.3,0,0.5,0.2,0.5,0.6v3.3C85,321.4,84.7,321.6,84.4,321.6
			 M84.9,322.9c1.1,0,1.8-0.7,1.8-1.7v-3.8c0-0.9-0.4-1.6-1.6-1.6c-0.4,0-0.9,0.2-1.3,0.7h0v-2.8h-1.7v9.2h1.5l0-0.5h0
			C83.9,322.7,84.4,322.9,84.9,322.9 M73.7,322.8h1.7V318c0-0.5,0.2-0.8,0.6-0.8c0.4,0,0.5,0.3,0.5,0.6v5h1.7V318
			c0-0.5,0.3-0.8,0.6-0.8c0.4,0,0.5,0.3,0.5,0.6v5H81v-5.6c0-0.9-0.6-1.4-1.4-1.4c-0.6,0-1.1,0.3-1.5,0.8h0
			c-0.2-0.5-0.7-0.8-1.3-0.8c-0.6,0-1.1,0.3-1.4,0.8h0v-0.6h-1.7V322.8z M70.4,321.6c-0.3,0-0.5-0.3-0.5-1c0-0.7,0.3-1,0.7-1h0.3
			v1.3C70.9,321.3,70.6,321.6,70.4,321.6 M69.7,322.9c0.4,0,1-0.2,1.3-0.8h0c0,0.4,0.1,0.7,0.1,0.7h1.5c0-0.1-0.1-1-0.1-1.6v-3.5
			c0-1.2-0.8-1.9-2.1-1.9c-1.3,0-2.2,0.7-2.2,1.8v0.6h1.5v-0.6c0-0.3,0.1-0.5,0.5-0.5c0.4,0,0.6,0.2,0.6,0.5v1h-0.4
			c-1.3,0-2.4,0.8-2.4,2.3C68.2,322.3,68.9,322.9,69.7,322.9 M62.9,321.6c-0.3,0-0.5-0.3-0.5-0.6v-3.2c0-0.4,0.2-0.7,0.5-0.7
			c0.3,0,0.6,0.3,0.6,0.7v3C63.6,321.2,63.3,321.6,62.9,321.6 M62.3,322.9c0.5,0,1-0.3,1.3-0.8h0l0,0.6h1.6v-9.2h-1.7v2.7h0
			c-0.3-0.4-0.7-0.6-1.2-0.6c-1,0-1.6,0.8-1.6,1.6v3.9C60.7,322.2,61.2,322.9,62.3,322.9 M57.5,321.6c-0.3,0-0.5-0.3-0.5-1
			c0-0.7,0.3-1,0.7-1h0.3v1.3C58.1,321.3,57.8,321.6,57.5,321.6 M56.8,322.9c0.4,0,1-0.2,1.3-0.8h0c0,0.4,0.1,0.7,0.1,0.7h1.5
			c0-0.1-0.1-1-0.1-1.6v-3.5c0-1.2-0.8-1.9-2.1-1.9c-1.3,0-2.2,0.7-2.2,1.8v0.6h1.5v-0.6c0-0.3,0.1-0.5,0.5-0.5
			c0.4,0,0.6,0.2,0.6,0.5v1h-0.4c-1.3,0-2.4,0.8-2.4,2.3C55.3,322.3,56,322.9,56.8,322.9 M51.8,318.8v-1c0-0.3,0.2-0.6,0.6-0.6
			c0.4,0,0.6,0.3,0.6,0.6v1H51.8z M52.4,322.9c0.8,0,1.4-0.2,2-0.4l-0.3-1.2c-0.3,0.1-0.8,0.3-1.3,0.3c-0.6,0-0.9-0.3-0.9-0.9V320
			h2.6v-2.2c0-1.2-0.8-2-2.1-2c-1.2,0-2.2,0.8-2.2,2.2v2.9C50.2,322.2,51.1,322.9,52.4,322.9 M46,317.8v-2.7h0.7
			c0.6,0,0.8,0.5,0.8,1.3c0,1-0.3,1.4-0.8,1.4H46z M44.1,322.8H46v-3.6h0.6l0.9,3.6h1.9l-1.2-4c0.6-0.3,1.1-1.1,1.1-2.4
			c0-1.9-0.9-2.7-2.5-2.7h-2.6V322.8z"/>
	</g>
	<rect x="-41.8" y="286.9" fill="#0C2A31" width="1.1" height="50.3"/>
</g>
</svg>
